#!OML:ASF H:\Dans Jumps\Project 1\Capture day 1\Session 1\subject.ASF
:FULLY-SPECIFIED
:DEGREES
195
root 0.467745 16.3376 -15.7688 13.6936 -1.27371 -1.15913
lowerback 13.0703 -0.18269 0.0812476
upperback 7.73217 -0.223024 1.94303
thorax 0.794919 -0.154956 2.00261
lowerneck -15.3005 0.898568 -1.20428
upperneck 20.3485 1.92599 -1.71108
head 8.90769 0.620031 -0.149265
rclavicle 7.55382e-015 -3.77691e-015
rhumerus -25.9049 -10.7517 -78.8757
rradius 25.6868
rwrist 27.6316
rhand -19.9012 -27.3697
rfingers 7.12502
rthumb 6.43523 -57.2519
lclavicle 7.55382e-015 -3.77691e-015
lhumerus -23.4274 -7.3996 88.4239
lradius 22.7405
lwrist 12.583
lhand -26.312 -1.22556
lfingers 7.12502
lthumb 0.244436 28.754
rfemur -45.6063 -4.33799 21.0332
rtibia 52.4733
rfoot -19.7087 -1.83624
rtoes 9.37384
lfemur -45.1525 10.591 -21.545
ltibia 51.5076
lfoot -18.8649 3.08825
ltoes -0.400401
196
root 0.467804 16.2968 -15.7947 13.8342 -1.24519 -1.16033
lowerback 13.2845 -0.184614 0.0667247
upperback 7.78722 -0.22536 1.94896
thorax 0.73899 -0.156829 2.01875
lowerneck -15.3363 0.887887 -1.2282
upperneck 20.0816 1.90608 -1.68678
head 8.82218 0.614944 -0.139525
rclavicle 1.31198e-014 -3.97569e-015
rhumerus -26.0403 -10.7173 -78.7983
rradius 25.7367
rwrist 27.541
rhand -19.9157 -27.3844
rfingers 7.12502
rthumb 6.42124 -57.2671
lclavicle 1.31198e-014 -3.97569e-015
lhumerus -23.6011 -7.42725 88.429
lradius 22.7391
lwrist 12.68
lhand -26.3182 -1.17803
lfingers 7.12502
lthumb 0.238443 28.8016
rfemur -46.2429 -4.38832 21.0742
rtibia 53.1361
rfoot -19.8803 -1.86717
rtoes 9.27984
lfemur -45.799 10.5357 -21.5882
ltibia 52.18
lfoot -19.0201 3.2099
ltoes -0.521757
197
root 0.46777 16.2558 -15.8203 13.9722 -1.21532 -1.16337
lowerback 13.5048 -0.187658 0.0495983
upperback 7.84239 -0.229422 1.95465
thorax 0.680223 -0.15963 2.03643
lowerneck -15.3611 0.874425 -1.25952
upperneck 19.8043 1.88146 -1.65191
head 8.73113 0.608421 -0.125645
rclavicle 2.38542e-015 1.55052e-014
rhumerus -26.1731 -10.6805 -78.7296
rradius 25.7883
rwrist 27.4457
rhand -19.9343 -27.4379
rfingers 7.12502
rthumb 6.40328 -57.3211
lclavicle 2.38542e-015 1.55052e-014
lhumerus -23.7754 -7.44297 88.4302
lradius 22.741
lwrist 12.7648
lhand -26.2692 -1.04746
lfingers 7.12502
lthumb 0.285726 28.9321
rfemur -46.8729 -4.43453 21.1158
rtibia 53.7969
rfoot -20.0524 -1.89962
rtoes 9.20696
lfemur -46.439 10.4697 -21.6239
ltibia 52.8511
lfoot -19.1732 3.33981
ltoes -0.63272
198
root 0.467578 16.2141 -15.8457 14.1096 -1.18375 -1.1809
lowerback 13.7242 -0.189929 0.0443304
upperback 7.89835 -0.231202 1.96443
thorax 0.622891 -0.161017 2.05142
lowerneck -15.3952 0.861644 -1.27767
upperneck 19.5353 1.85826 -1.63131
head 8.64524 0.601844 -0.118593
rclavicle -1.43125e-014 -3.37934e-015
rhumerus -26.3024 -10.6735 -78.6548
rradius 25.8192
rwrist 27.4069
rhand -19.9786 -27.4664
rfingers 7.12502
rthumb 6.36051 -57.351
lclavicle -1.43125e-014 -3.37934e-015
lhumerus -23.9569 -7.47291 88.4394
lradius 22.7529
lwrist 12.8778
lhand -26.3088 -1.02816
lfingers 7.12502
lthumb 0.247456 28.9514
rfemur -47.4991 -4.4697 21.1714
rtibia 54.4542
rfoot -20.2215 -1.93732
rtoes 9.1515
lfemur -47.0796 10.4035 -21.6404
ltibia 53.5218
lfoot -19.324 3.46836
ltoes -0.730246
199
root 0.467217 16.1724 -15.8708 14.2486 -1.15659 -1.1952
lowerback 13.9422 -0.189572 0.0300631
upperback 7.95354 -0.230588 1.97396
thorax 0.565634 -0.161497 2.07096
lowerneck -15.4336 0.847115 -1.29707
upperneck 19.2713 1.83312 -1.60989
head 8.56203 0.594244 -0.111283
rclavicle 1.39149e-015 -1.19271e-015
rhumerus -26.4307 -10.6705 -78.5807
rradius 25.8472
rwrist 27.3586
rhand -20.0287 -27.4971
rfingers 7.12502
rthumb 6.3121 -57.383
lclavicle 1.39149e-015 -1.19271e-015
lhumerus -24.1368 -7.49709 88.4524
lradius 22.7584
lwrist 13.0038
lhand -26.3991 -1.08913
lfingers 7.12502
lthumb 0.160328 28.8906
rfemur -48.1232 -4.49257 21.2204
rtibia 55.1068
rfoot -20.3874 -1.98023
rtoes 9.11268
lfemur -47.7175 10.3361 -21.6582
ltibia 54.1886
lfoot -19.4737 3.60064
ltoes -0.824485
200
root 0.46668 16.1306 -15.8956 14.3891 -1.13939 -1.20971
lowerback 14.1621 -0.185122 0.00671682
upperback 8.0063 -0.22569 1.98404
thorax 0.504905 -0.160131 2.09567
lowerneck -15.4661 0.832876 -1.31407
upperneck 19.0078 1.80937 -1.59574
head 8.47826 0.586722 -0.106697
rclavicle 3.57812e-015 1.33186e-014
rhumerus -26.5652 -10.6472 -78.5131
rradius 25.8868
rwrist 27.2762
rhand -20.0746 -27.5552
rfingers 7.12502
rthumb 6.26784 -57.4424
lclavicle 3.57812e-015 1.33186e-014
lhumerus -24.3154 -7.52016 88.4689
lradius 22.7588
lwrist 13.1486
lhand -26.482 -1.141
lfingers 7.12502
lthumb 0.0802606 28.8387
rfemur -48.7464 -4.49684 21.2659
rtibia 55.7531
rfoot -20.5457 -2.03354
rtoes 9.06153
lfemur -48.3535 10.2763 -21.676
ltibia 54.8518
lfoot -19.6239 3.73458
ltoes -0.910656
201
root 0.466084 16.0886 -15.9203 14.5356 -1.13142 -1.22237
lowerback 14.3777 -0.175888 -0.0225491
upperback 8.0564 -0.21539 1.99236
thorax 0.44368 -0.156215 2.12112
lowerneck -15.4979 0.818858 -1.32847
upperneck 18.7472 1.78619 -1.58508
head 8.39564 0.57924 -0.103657
rclavicle 6.95746e-015 -4.77083e-015
rhumerus -26.7036 -10.619 -78.4487
rradius 25.9313
rwrist 27.164
rhand -20.1031 -27.6077
rfingers 7.12502
rthumb 6.24025 -57.4958
lclavicle 6.95746e-015 -4.77083e-015
lhumerus -24.4899 -7.5369 88.4866
lradius 22.753
lwrist 13.2994
lhand -26.6049 -1.24652
lfingers 7.12502
lthumb -0.0385311 28.7332
rfemur -49.3736 -4.48447 21.3058
rtibia 56.3927
rfoot -20.698 -2.09384
rtoes 9.00445
lfemur -48.993 10.2229 -21.6968
ltibia 55.5095
lfoot -19.7719 3.86306
ltoes -0.973513
202
root 0.465507 16.0466 -15.9449 14.691 -1.12875 -1.23543
lowerback 14.5865 -0.164792 -0.0537741
upperback 8.10379 -0.203089 1.99874
thorax 0.383291 -0.151311 2.14532
lowerneck -15.5368 0.806319 -1.33775
upperneck 18.4959 1.76502 -1.57821
head 8.31773 0.572499 -0.102452
rclavicle -3.77691e-015 -9.74045e-015
rhumerus -26.8419 -10.5845 -78.3906
rradius 25.9787
rwrist 27.0239
rhand -20.1192 -27.6488
rfingers 7.12502
rthumb 6.22477 -57.5374
lclavicle -3.77691e-015 -9.74045e-015
lhumerus -24.6561 -7.54128 88.5001
lradius 22.7462
lwrist 13.4523
lhand -26.7474 -1.38072
lfingers 7.12502
lthumb -0.176162 28.5989
rfemur -50.007 -4.46065 21.3432
rtibia 57.0245
rfoot -20.8452 -2.15816
rtoes 8.94412
lfemur -49.6394 10.1739 -21.719
ltibia 56.1622
lfoot -19.9184 3.98589
ltoes -1.01738
